<?xml version="1.0" encoding="iso-8859-1"?>
<!-- Generator: Adobe Illustrator 19.0.0, SVG Export Plug-In . SVG Version: 6.00 Build 0)  -->
<svg version="1.1" id="Layer_1" xmlns="http://www.w3.org/2000/svg" xmlns:xlink="http://www.w3.org/1999/xlink" x="0px" y="0px"
	 viewBox="0 0 490 490" style="enable-background:new 0 0 490 490;" xml:space="preserve">
<g>
	<g>
		<g>
			<path d="M480,47.5H270c-5.522,0-10,4.478-10,10v5H10c-5.523,0-10,4.478-10,10v250c0,5.522,4.477,10,10,10h145v60h-15
				c-5.523,0-10,4.478-10,10v30c0,5.522,4.477,10,10,10h340c5.522,0,10-4.478,10-10v-375C490,51.978,485.522,47.5,480,47.5z
				 M260,422.5H150v-10h110V422.5z M260,392.5h-85v-60h15v40c0,5.522,4.477,10,10,10h60V392.5z M260,362.5h-50v-30h50V362.5z
				 M260,282.5H50v-170h210V282.5z M260,92.5H40c-5.522,0-10,4.478-10,10v190c0,5.522,4.478,10,10,10h220v10H20v-230h240V92.5z
				 M435,422.5H315v-115h110v-20H315v-15h120V422.5z M470,422.5h-15v-160c0-5.522-4.478-10-10-10H305c-5.522,0-10,4.478-10,10v160
				h-15v-185h190V422.5z M470,217.5H280v-85h190V217.5z M470,112.5H280v-45h190V112.5z"/>
			<rect x="295" y="147.5" width="160" height="20"/>
			<rect x="430" y="182.5" width="25" height="20"/>
			<rect x="390" y="182.5" width="25" height="20"/>
			<rect x="295" y="182.5" width="25" height="20"/>
			<rect x="295" y="77.5" width="160" height="20"/>
			<path d="M375,332.5c-19.299,0-35,15.701-35,35s15.701,35,35,35s35-15.701,35-35S394.299,332.5,375,332.5z M375,382.5
				c-8.272,0-15-6.728-15-15c0-8.272,6.728-15,15-15c8.272,0,15,6.728,15,15C390,375.772,383.272,382.5,375,382.5z"/>
		</g>
	</g>
</g>
<g>
</g>
<g>
</g>
<g>
</g>
<g>
</g>
<g>
</g>
<g>
</g>
<g>
</g>
<g>
</g>
<g>
</g>
<g>
</g>
<g>
</g>
<g>
</g>
<g>
</g>
<g>
</g>
<g>
</g>
</svg>
