<svg version="1.0" xmlns="http://www.w3.org/2000/svg" width="346.667" height="346.667" viewBox="0 0 260 260"><path d="M48 56.5c0 .5 2.1 7 25 76.6l13.3 40.6h14.6l14.7.1 12.8-38.2c7.1-20.9 13.1-38.4 13.5-38.9.6-.6 12.6 35 23.4 69.3 1.2 3.6 2.5 6.8 3 7.2.6.3 7.3.5 15 .5l14.1-.2 9.2-28C217.3 113 231.3 70 234 61.7l1.8-5.7h-26.4L202 78.7c-4.1 12.5-7.6 23.2-7.7 23.8-1.3 5.8-12.2 35.6-12.6 34.5-.3-.8-4.7-14.3-9.7-30-5-15.7-10.8-33.6-12.8-39.8L155.6 56h-25.4l-4 11.7c-2.2 6.5-8.1 24.4-13.3 39.8-5.1 15.4-9.6 28.4-9.9 28.8-.4.4-3.1-6.5-6-15.5-2.8-9-8.7-27.1-12.9-40.3l-7.7-24-14.2-.3c-7.8-.1-14.2 0-14.2.3zM35.5 95.2c-11.8 3.3-13.1 19.4-2 24.8 4.2 2 11.5 2.1 15.1.2 9.1-4.9 9.8-18.9 1.1-23.5-3.8-2-10-2.7-14.2-1.5zm-6.6 41.1c-.1 4.2-.1 79 0 79.9.1.5 5.5.8 12.1.8h12l.1-2.8v-76.5L53 133l-12 .1H29l-.1 3.2z"/></svg>