<?xml version="1.0" standalone="no"?>
<!DOCTYPE svg PUBLIC "-//W3C//DTD SVG 20010904//EN"
 "http://www.w3.org/TR/2001/REC-SVG-20010904/DTD/svg10.dtd">
<svg version="1.0" xmlns="http://www.w3.org/2000/svg"
 width="260.000000pt" height="260.000000pt" viewBox="0 0 260.000000 260.000000"
 preserveAspectRatio="xMidYMid meet">
<metadata>
Created by potrace 1.14, written by Peter Selinger 2001-2017
</metadata>
<g transform="translate(0.000000,260.000000) scale(0.100000,-0.100000)"
fill="#000000" stroke="none">
<path d="M480 2035 c0 -5 21 -70 250 -766 l133 -406 146 0 147 -1 128 382 c71
209 131 384 135 389 6 6 126 -350 234 -693 12 -36 25 -68 30 -72 6 -3 73 -5
150 -5 l141 2 92 280 c107 325 247 755 274 838 l18 57 -132 0 -132 0 -74 -227
c-41 -125 -76 -232 -77 -238 -13 -58 -122 -356 -126 -345 -3 8 -47 143 -97
300 -50 157 -108 336 -128 398 l-36 112 -127 0 -127 0 -40 -117 c-22 -65 -81
-244 -133 -398 -51 -154 -96 -284 -99 -288 -4 -4 -31 65 -60 155 -28 90 -87
271 -129 403 l-77 240 -142 3 c-78 1 -142 0 -142 -3z"/>
<path d="M355 1648 c-118 -33 -131 -194 -20 -248 42 -20 115 -21 151 -2 91 49
98 189 11 235 -38 20 -100 27 -142 15z"/>
<path d="M289 1237 c-1 -42 -1 -790 0 -799 1 -5 55 -8 121 -8 l120 0 1 28 c0
34 0 700 0 765 l-1 47 -120 -1 -120 0 -1 -32z"/>
</g>
</svg>
