<svg xmlns="http://www.w3.org/2000/svg" viewBox="0 0 389.981 389.981"><path d="M145.407 248.988l-2.775 26.209a7.497 7.497 0 007.459 8.289h79.301a7.506 7.506 0 005.576-2.483 7.505 7.505 0 001.883-5.806l-2.775-26.209h98.777c15.374 0 27.881-12.507 27.881-27.881V27.881C360.733 12.507 348.225 0 332.852 0H40.63C25.256 0 12.749 12.507 12.749 27.881v193.226c0 15.374 12.507 27.881 27.881 27.881h104.777zm75.648 19.499h-62.629l2.064-19.499h58.5l2.065 19.499zM40.63 15h292.222c7.103 0 12.881 5.778 12.881 12.881V197.99H27.749V27.881C27.749 20.778 33.527 15 40.63 15zM27.749 221.107v-8.117h317.983v8.117c0 7.103-5.778 12.881-12.881 12.881H40.63c-7.103 0-12.881-5.778-12.881-12.881zm304.896 112.769a7.5 7.5 0 00.244-7.352l-14.813-28.499a7.5 7.5 0 00-6.655-4.041H62.061a7.501 7.501 0 00-6.655 4.041l-14.813 28.499a7.502 7.502 0 006.655 10.959h278.986a7.498 7.498 0 006.411-3.607zM59.599 322.484l7.016-13.499h240.251l7.017 13.499H59.599zm286.134 28.498h-12c-17.368 0-31.499 14.13-31.499 31.499a7.5 7.5 0 007.5 7.5h59.997a7.5 7.5 0 007.5-7.5c.001-17.368-14.129-31.499-31.498-31.499zm-26.693 23.999c2.735-5.337 8.295-8.999 14.693-8.999h12c6.398 0 11.958 3.662 14.694 8.999H319.04z"/></svg>