<svg xmlns="http://www.w3.org/2000/svg" viewBox="0 0 490 490"><path d="M480 47.5H270c-5.522 0-10 4.478-10 10v5H10c-5.523 0-10 4.478-10 10v250c0 5.522 4.477 10 10 10h145v60h-15c-5.523 0-10 4.478-10 10v30c0 5.522 4.477 10 10 10h340c5.522 0 10-4.478 10-10v-375c0-5.522-4.478-10-10-10zm-220 375H150v-10h110v10zm0-30h-85v-60h15v40c0 5.522 4.477 10 10 10h60v10zm0-30h-50v-30h50v30zm0-80H50v-170h210v170zm0-190H40c-5.522 0-10 4.478-10 10v190c0 5.522 4.478 10 10 10h220v10H20v-230h240v10zm175 330H315v-115h110v-20H315v-15h120v150zm35 0h-15v-160c0-5.522-4.478-10-10-10H305c-5.522 0-10 4.478-10 10v160h-15v-185h190v185zm0-205H280v-85h190v85zm0-105H280v-45h190v45z"/><path d="M295 147.5h160v20H295zm135 35h25v20h-25zm-40 0h25v20h-25zm-95 0h25v20h-25zm0-105h160v20H295zm80 255c-19.299 0-35 15.701-35 35s15.701 35 35 35 35-15.701 35-35-15.701-35-35-35zm0 50c-8.272 0-15-6.728-15-15s6.728-15 15-15 15 6.728 15 15-6.728 15-15 15z"/></svg>