<svg xmlns="http://www.w3.org/2000/svg" viewBox="0 0 421.59 421.59"><path d="M400.491 291.098l-58.865-36.976 58.864-36.971a7.5 7.5 0 000-12.703l-58.865-36.977 58.862-36.973a7.5 7.5 0 000-12.702L214.783 1.149a7.5 7.5 0 00-7.979 0L21.1 117.796a7.5 7.5 0 000 12.702l58.861 36.972-58.859 36.978a7.5 7.5 0 00.001 12.702l58.859 36.97-58.859 36.979a7.498 7.498 0 00.001 12.702l185.7 116.64a7.494 7.494 0 007.978 0L400.491 303.8a7.5 7.5 0 000-12.702zM39.189 124.147l171.605-107.79 171.604 107.79-171.604 107.79-171.605-107.79zm.002 86.651l54.869-34.471 112.744 70.818a7.491 7.491 0 007.978 0l112.742-70.817 54.875 34.47-171.607 107.784L39.191 210.798zm171.601 194.434L39.191 297.448l54.87-34.472 112.742 70.814a7.494 7.494 0 007.978 0l112.744-70.812 54.876 34.47-171.609 107.784z"/></svg>